HIERARCHY
ROOT Hips
{
	OFFSET 0.000000 0.000000 0.000000
	CHANNELS 6 Xposition Yposition Zposition Zrotation Yrotation Xrotation 
	JOINT LowerBack
	{
		OFFSET 0.000000 0.000000 0.000000
		CHANNELS 3 Zrotation Yrotation Xrotation
		JOINT Spine
		{
			OFFSET 0.028270 2.035590 -0.193380
			CHANNELS 3 Zrotation Yrotation Xrotation
			JOINT Spine1
			{
				OFFSET 0.056720 2.048850 -0.042750
				CHANNELS 3 Zrotation Yrotation Xrotation
				JOINT Neck
				{
					OFFSET 0.000000 0.000000 0.000000
					CHANNELS 3 Zrotation Yrotation Xrotation
					JOINT Neck1
					{
						OFFSET -0.054170 1.746240 0.172020
						CHANNELS 3 Zrotation Yrotation Xrotation
						JOINT Head
						{
							OFFSET 0.104070 1.761360 -0.123970
							CHANNELS 3 Zrotation Yrotation Xrotation
							End Site
							{
								OFFSET 0.000000 0.000000 0.000000
							}
						}
					}
				}
				JOINT LeftShoulder
				{
					OFFSET 0.000000 0.000000 0.000000
					CHANNELS 3 Zrotation Yrotation Xrotation
					JOINT LeftArm
					{
						OFFSET 3.362410 1.200890 -0.311210
						CHANNELS 3 Zrotation Yrotation Xrotation
						JOINT LeftForeArm
						{
							OFFSET 4.983000 -0.000000 -0.000000
							CHANNELS 3 Zrotation Yrotation Xrotation
							JOINT LeftHand
							{
								OFFSET 3.483560 -0.000000 -0.000000
								CHANNELS 3 Zrotation Yrotation Xrotation
								JOINT LeftFingerBase
								{
									OFFSET 0.000000 0.000000 0.000000
									CHANNELS 3 Zrotation Yrotation Xrotation
									JOINT LeftHandIndex1
									{
										OFFSET 0.715260 -0.000000 -0.000000
										CHANNELS 3 Zrotation Yrotation Xrotation
										End Site
										{
											OFFSET 0.000000 0.000000 0.000000
										}
									}
								}
								JOINT LThumb
								{
									OFFSET 0.000000 0.000000 0.000000
									CHANNELS 3 Zrotation Yrotation Xrotation
									End Site
									{
										OFFSET 0.000000 0.000000 0.000000
									}
								}
							}
						}
					}
				}
				JOINT RightShoulder
				{
					OFFSET 0.000000 0.000000 0.000000
					CHANNELS 3 Zrotation Yrotation Xrotation
					JOINT RightArm
					{
						OFFSET -3.136600 1.374050 -0.404650
						CHANNELS 3 Zrotation Yrotation Xrotation
						JOINT RightForeArm
						{
							OFFSET -5.241900 -0.000000 -0.000000
							CHANNELS 3 Zrotation Yrotation Xrotation
							JOINT RightHand
							{
								OFFSET -3.444170 -0.000000 -0.000000
								CHANNELS 3 Zrotation Yrotation Xrotation
								JOINT RightFingerBase
								{
									OFFSET 0.000000 0.000000 0.000000
									CHANNELS 3 Zrotation Yrotation Xrotation
									JOINT RightHandIndex1
									{
										OFFSET -0.622530 -0.000000 -0.000000
										CHANNELS 3 Zrotation Yrotation Xrotation
										End Site
										{
											OFFSET 0.000000 0.000000 0.000000
										}
									}
								}
								JOINT RThumb
								{
									OFFSET 0.000000 0.000000 0.000000
									CHANNELS 3 Zrotation Yrotation Xrotation
									End Site
									{
										OFFSET 0.000000 0.000000 0.000000
									}
								}
							}
						}
					}
				}
			}
		}
	}
}
}
MOTION
Frames: 7
Frame Time: 0.008333
8.339831 17.317083 1.684692 9.211693 80.489662 36.884999 -4.297167 1.002091 -9.319593 -1.743003 1.045801 -4.733722 -5.185166 0.971768 -0.044018 5.586619 -4.047431 -5.679696 -1.780340 -0.160773 0.523508 0.000000 0.000000 0.000000 4.831573 9.057298 3.270575 -8.272101 -19.566299 -12.075957 -0.512516 -72.347407 -0.116513 15.447370 -2.421512 -0.405852 -0.382952 0.508221 0.000000 0.000000 0.000000 0.000000 0.000000 0.000000 0.000000 3.599643 1.735512 -0.066501 33.025147 40.142409 -5.564653 -0.026307 77.380677 -0.116554 -12.800607 7.386395 -0.904735 0.108534 -0.604797 0.000000 0.000000 0.000000 0.000000 0.000000 0.000000 0.000000 
8.661923 17.294414 1.700711 8.133298 79.871604 35.580761 -4.647649 1.109115 -9.354302 -1.782720 1.182019 -4.741675 -4.997553 1.100364 -0.039212 5.635855 -3.978914 -5.652956 -1.623917 -0.150038 0.533424 0.000000 0.000000 0.000000 4.581703 9.361931 3.403310 -8.284271 -18.771652 -13.542893 -0.597510 -70.397822 -0.115018 15.426538 -2.581747 -0.427520 -0.383956 0.507038 0.000000 0.000000 0.000000 0.000000 0.000000 0.000000 0.000000 2.972616 1.887977 -0.201947 32.671490 41.662430 -3.978427 -0.006172 78.181859 -0.116800 -12.624332 7.464454 -0.901655 0.104903 -0.612676 -0.000000 0.000000 0.000000 0.000000 0.000000 0.000000 0.000000 
8.984714 17.258746 1.713859 6.958380 79.225049 34.045722 -4.938083 1.227314 -9.299415 -1.807910 1.326464 -4.729674 -4.803365 1.238701 -0.036717 5.660149 -3.950554 -5.627316 -1.463804 -0.138994 0.542647 0.000000 0.000000 0.000000 4.331302 9.668771 3.517280 -8.302136 -18.009585 -15.032667 -0.684210 -68.367675 -0.114849 15.541748 -2.716486 -0.449489 -0.386808 0.506170 0.000000 0.000000 0.000000 0.000000 0.000000 0.000000 0.000000 2.316343 1.994547 -0.335602 32.246347 43.270110 -2.433826 0.012328 78.918803 -0.117193 -12.476044 7.525570 -0.898489 0.101491 -0.619900 -0.000000 0.000000 0.000000 0.000000 0.000000 0.000000 0.000000 
9.307903 17.210181 1.725045 5.919833 78.588671 32.539560 -5.198774 1.340983 -9.177303 -1.824450 1.465327 -4.703329 -4.605728 1.372406 -0.035445 5.673535 -3.967574 -5.602638 -1.304294 -0.127960 0.551304 0.000000 0.000000 0.000000 4.096707 9.954333 3.611749 -8.316211 -17.273630 -16.543891 -0.769872 -66.252395 -0.116142 15.804545 -2.810567 -0.470561 -0.391670 0.505472 0.000000 0.000000 0.000000 0.000000 0.000000 0.000000 0.000000 1.669815 2.040385 -0.463421 31.706480 44.964009 -0.946331 0.029809 79.593754 -0.117770 -12.365198 7.575879 -0.896532 0.098534 -0.626342 -0.000000 0.000000 0.000000 0.000000 0.000000 0.000000 0.000000 
9.631013 17.149679 1.735840 5.312639 78.014072 31.409764 -5.486941 1.425958 -9.033278 -1.844469 1.578508 -4.672554 -4.409368 1.480608 -0.034388 5.698938 -4.030510 -5.577666 -1.151314 -0.117399 0.559787 0.000000 0.000000 0.000000 3.894907 10.183085 3.688454 -8.307671 -16.547274 -18.081360 -0.851903 -64.053396 -0.118961 16.214842 -2.846347 -0.488036 -0.398645 0.504771 0.000000 0.000000 0.000000 0.000000 0.000000 0.000000 0.000000 1.088672 2.012746 -0.578204 31.005998 46.736567 0.462238 0.047824 80.216416 -0.118532 -12.295287 7.620023 -0.896784 0.096234 -0.631963 -0.000000 0.000000 0.000000 0.000000 0.000000 0.000000 0.000000 
9.953432 17.078619 1.747659 5.328347 77.550640 30.910047 -5.852954 1.460520 -8.918111 -1.878928 1.647784 -4.647318 -4.218172 1.544410 -0.031682 5.757509 -4.136170 -5.552769 -1.009891 -0.107679 0.568003 0.000000 0.000000 0.000000 3.738718 10.333994 3.749801 -8.260808 -15.836153 -19.656857 -0.928298 -61.761374 -0.123301 16.760600 -2.809960 -0.499113 -0.407690 0.504014 0.000000 0.000000 0.000000 0.000000 0.000000 0.000000 0.000000 0.620662 1.904700 -0.673826 30.103121 48.573513 1.761189 0.067808 80.802055 -0.119422 -12.259622 7.660235 -0.899040 0.094582 -0.636829 -0.000000 0.000000 0.000000 0.000000 0.000000 0.000000 0.000000 
10.274236 16.998226 1.760940 5.938887 77.231030 31.052204 -6.302986 1.436446 -8.856325 -1.929238 1.664935 -4.632397 -4.034018 1.555326 -0.026305 5.857958 -4.277544 -5.530668 -0.882379 -0.098923 0.575182 0.000000 0.000000 0.000000 3.629327 10.416162 3.797379 -8.170440 -15.184230 -21.291262 -0.997359 -59.350340 -0.129077 17.418793 -2.693806 -0.500592 -0.418554 0.503273 0.000000 0.000000 0.000000 0.000000 0.000000 0.000000 0.000000 0.284312 1.719594 -0.749434 28.964939 50.454289 2.911172 0.090092 81.368151 -0.120338 -12.241826 7.698269 -0.902299 0.093260 -0.641080 -0.000000 0.000000 0.000000 0.000000 0.000000 0.000000 0.000000 
